<?xml version="1.0" encoding="UTF-8"?>
<svg xmlns="http://www.w3.org/2000/svg">
  <symbol id="instagram" fill="none" viewBox="0 0 20 20">
    <path fill="currentColor"
      d="M10 7.5a2.5 2.5 0 1 0 0 5 2.5 2.5 0 0 0 0-5Zm0-1.7a4.2 4.2 0 1 1 0 8.4 4.2 4.2 0 0 1 0-8.4Zm5.4-.2a1 1 0 1 1-2 0 1 1 0 0 1 2 0ZM10 3.3a60.5 60.5 0 0 0-4.9.4l-.9.5-.5 1a57.7 57.7 0 0 0 0 9.7l.5.9 1 .5a57.7 57.7 0 0 0 9.7 0l.9-.5.5-1a57.6 57.6 0 0 0 0-9.7c0-.3-.3-.6-.5-.9l-1-.5a57.7 57.7 0 0 0-4.9-.3Zm0-1.6h3.4c1 0 1.5.2 2 .4.6.2 1 .5 1.5 1 .5.4.8.9 1 1.4l.4 2a60.5 60.5 0 0 1-.4 9 4 4 0 0 1-1 1.4c-.4.5-.9.8-1.4 1l-2 .4a60.6 60.6 0 0 1-9-.4 4 4 0 0 1-1.4-1 4 4 0 0 1-1-1.4l-.4-2a60.5 60.5 0 0 1 .4-9c.2-.5.5-1 1-1.4a4 4 0 0 1 1.4-1l2-.4H10Z" />
  </symbol>
  <symbol id="telegram" fill="none" viewBox="0 0 20 20">
    <path fill="currentColor"
      d="M10 16.7a6.7 6.7 0 1 0 0-13.4 6.7 6.7 0 0 0 0 13.4Zm0 1.6a8.3 8.3 0 1 1 0-16.6 8.3 8.3 0 0 1 0 16.6ZM7.4 11l-2-.7c-.5-.1-.5-.4 0-.6l8.1-3.2c.5-.2.8 0 .6.7l-1.4 6.5c0 .5-.3.6-.7.4l-2.1-1.6-1 1-.4.1c-.1 0-.3 0-.4-.2L7.4 11Z" />
  </symbol>
  <symbol id="viber" fill="currentColor" viewBox="0 0 40 40">
    <path d="M20 33.33a13.33 13.33 0 1 0 0-26.66 13.33 13.33 0 0 0 0 26.66Zm0 3.34a16.67 16.67 0 1 1 0-33.34 16.67 16.67 0 0 1 0 33.34Z"/>
    <path d="M13.26 13.49c-.28-.04-.56.01-.8.16-.57.33-1.1.75-1.53 1.25a2.4 2.4 0 0 0-.61 1.25c-.03.25-.01.5.06.72.4 1.2.96 2.38 1.61 3.47a20.29 20.29 0 0 0 3.06 4.21 22.32 22.32 0 0 0 7.78 4.86c.18.06.35.1.52.1a2.41 2.41 0 0 0 1.45-.63c.49-.44.9-.96 1.23-1.53.3-.58.2-1.13-.24-1.5a18.24 18.24 0 0 0-2.83-2.05c-.67-.36-1.36-.14-1.64.23l-.59.75c-.3.38-.85.33-.85.33-4.11-1.06-5.22-5.25-5.22-5.25s-.05-.57.33-.86l.74-.6c.35-.3.6-.98.22-1.66a17.92 17.92 0 0 0-2.03-2.85c-.16-.21-.4-.35-.66-.4Z"/>
    <path fill-rule="evenodd" d="M20.36 16.75c-.49-.19-.96.21-.96.74 0 .39.27.72.61.89.65.31 1.18.84 1.5 1.49.17.35.5.62.88.62.53 0 .93-.48.74-.97a4.9 4.9 0 0 0-2.77-2.77Z" clip-rule="evenodd"/>
    <path d="M19.76 15.41a6.52 6.52 0 0 1 4.8 4.8c.1.4.44.71.86.71.48 0 .87-.42.77-.9a8.14 8.14 0 0 0-6.24-6.24c-.48-.1-.9.29-.9.77 0 .42.3.76.71.86Z"/>
    <path d="M19.78 12.56c4.16.47 7.23 4.4 7.68 7.7a.9.9 0 0 0 .88.81c.45 0 .82-.36.77-.81-.44-4.3-4.24-8.9-9.33-9.34a.77.77 0 0 0-.82.78c0 .45.37.81.82.86Z"/>
  </symbol>
  <symbol id="tel" fill="none" viewBox="0 0 20 20">
    <path fill="currentColor"
      d="M17.5 13.7v3a.8.8 0 0 1-.8.8h-.9A13.3 13.3 0 0 1 2.5 3.3a.8.8 0 0 1 .9-.8h3a.4.4 0 0 1 .3.4 11.2 11.2 0 0 0 1 3.8c.2.1.1.3 0 .4L5.9 8.4c1 2.6 3.1 4.6 5.7 5.7l1.3-1.8a.4.4 0 0 1 .4 0 11.6 11.6 0 0 0 3.8 1 .4.4 0 0 1 .4.4Z" />
  </symbol>
  <symbol id="close" fill="none" viewBox="0 0 20 20">
    <path fill="currentColor"
      d="m10 8.8 4.1-4.1 1.2 1.2-4.1 4.1 4.1 4.1-1.2 1.2-4.1-4.1-4.1 4.1-1.2-1.2L8.8 10 4.7 5.9l1.2-1.2L10 8.8Z" />
  </symbol>
  <symbol id="arrow-right" fill="none" viewBox="0 0 20 20">
    <path fill="currentColor" fill-rule="evenodd"
      d="m11.8 4.7 4.7 4.8c.3.3.3.7 0 1l-4.7 4.8a.8.8 0 0 1-1.1-1l3.5-3.6H3.5a.8.8 0 0 1 0-1.5h10.7l-3.5-3.4a.7.7 0 1 1 1-1.1Z"
      clip-rule="evenodd" />
  </symbol>
  <symbol id="mark" fill="none" viewBox="0 0 20 20">
    <path fill="#71A65D"
      d="M15.303 14.47 10 19.773 4.697 14.47a7.5 7.5 0 1 1 10.606 0ZM10 10.833a1.666 1.666 0 1 0 0-3.332 1.666 1.666 0 0 0 0 3.332Z" />
  </symbol>
  <symbol id="time" fill="none" viewBox="0 0 20 20">
    <path fill-rule="evenodd" clip-rule="evenodd" d="M17.5 10a7.5 7.5 0 1 1-15 0 7.5 7.5 0 0 1 15 0Zm-6.63-3a.88.88 0 0 0-1.74 0v3c0 .23.09.45.25.62l2 2a.87.87 0 1 0 1.24-1.24l-1.74-1.74V7Z" fill="#71A65D"/>
  </symbol>
  <symbol id="star" viewBox="0 0 15 15">
    <path stroke="#FFD542" d="m7.5 1.3 1.52 3.66.12.28.3.03 3.95.31-3 2.58-.24.2.07.3.92 3.85-3.38-2.06-.26-.16-.26.16-3.38 2.06.92-3.85.07-.3-.23-.2L1.6 5.58l3.95-.31.3-.03.12-.28L7.5 1.3Z"/>
  </symbol>
  <symbol id="swiper-arrow" fill="none" viewBox="0 0 24 24">
    <path fill="currentColor" d="m17 5.7 6.3 6.3-6.4 6.3-1-1 4.5-4.6H.8v-1.4h19.6l-4.5-4.5 1-1.1Z" />
  </symbol>
  <symbol id="swiper-arrow-sm" fill="none" viewBox="0 0 20 20">
    <path fill="currentColor" fill-rule="evenodd" d="M13.5 10 8.2 4.7 7 5.9l4.1 4.1L7 14.1l1.2 1.2 5.3-5.3Z"
      clip-rule="evenodd" />
  </symbol>
  <symbol id="arrow-up" viewBox="0 0 20 20">
    <path fill="currentColor" d="m15 9.49-.95.96L10.7 7.1v8.39H9.3V7.1l-3.34 3.35L5 9.49l5-4.99 5 4.99Z"/>
  </symbol>
  <symbol id="grid" fill="none" viewBox="0 0 20 20">
    <rect width="5.5" height="5.5" x="2.75" y="2.75" stroke="currentColor" stroke-linecap="round" stroke-linejoin="round" stroke-width="1.5" rx="1.25"/>
    <rect width="5.5" height="5.5" x="2.75" y="11.75" stroke="currentColor" stroke-linecap="round" stroke-linejoin="round" stroke-width="1.5" rx="1.25"/>
    <rect width="5.5" height="5.5" x="11.75" y="2.75" stroke="currentColor" stroke-linecap="round" stroke-linejoin="round" stroke-width="1.5" rx="1.25"/>
    <rect width="5.5" height="5.5" x="11.75" y="11.75" stroke="currentColor" stroke-linecap="round" stroke-linejoin="round" stroke-width="1.5" rx="1.25"/>
  </symbol>
</svg>
